<svg xmlns="http://www.w3.org/2000/svg" xmlns:xlink="http://www.w3.org/1999/xlink" width="794" zoomAndPan="magnify" viewBox="0 0 595.5 842.249979" height="1123" preserveAspectRatio="xMidYMid meet" version="1.0"><defs><clipPath id="7773aa3da8"><path d="M 70 141 L 75 141 L 75 297.011719 L 70 297.011719 Z M 70 141 " clip-rule="nonzero"/></clipPath><clipPath id="558c96cb13"><path d="M 141 70 L 297.027344 70 L 297.027344 75 L 141 75 Z M 141 70 " clip-rule="nonzero"/></clipPath><clipPath id="edea073925"><path d="M 83 59.472656 L 88 59.472656 L 88 216 L 83 216 Z M 83 59.472656 " clip-rule="nonzero"/></clipPath><clipPath id="1d5d4bb58a"><path d="M 59.488281 83 L 216 83 L 216 88 L 59.488281 88 Z M 59.488281 83 " clip-rule="nonzero"/></clipPath><clipPath id="8a6e3674c5"><path d="M 174 625 L 179 625 L 179 781.304688 L 174 781.304688 Z M 174 625 " clip-rule="nonzero"/></clipPath><clipPath id="7ac898403e"><path d="M 245 554 L 401.117188 554 L 401.117188 559 L 245 559 Z M 245 554 " clip-rule="nonzero"/></clipPath><clipPath id="792da831e0"><path d="M 187 543.769531 L 192 543.769531 L 192 700 L 187 700 Z M 187 543.769531 " clip-rule="nonzero"/></clipPath><clipPath id="c7d5dc5b51"><path d="M 163.578125 567 L 320 567 L 320 572 L 163.578125 572 Z M 163.578125 567 " clip-rule="nonzero"/></clipPath></defs><g clip-path="url(#7773aa3da8)"><path fill="#26c485" d="M 74.519531 297.363281 L 70.597656 297.363281 L 70.597656 141.640625 L 74.519531 141.640625 L 74.519531 297.363281 " fill-opacity="1" fill-rule="nonzero"/></g><g clip-path="url(#558c96cb13)"><path fill="#26c485" d="M 297.378906 74.503906 L 141.660156 74.503906 L 141.660156 70.585938 L 297.378906 70.585938 L 297.378906 74.503906 " fill-opacity="1" fill-rule="nonzero"/></g><g clip-path="url(#edea073925)"><path fill="#26c485" d="M 87.59375 215.199219 L 83.671875 215.199219 L 83.671875 59.472656 L 87.59375 59.472656 L 87.59375 215.199219 " fill-opacity="1" fill-rule="nonzero"/></g><g clip-path="url(#1d5d4bb58a)"><path fill="#26c485" d="M 215.210938 87.578125 L 59.488281 87.578125 L 59.488281 83.65625 L 215.210938 83.65625 L 215.210938 87.578125 " fill-opacity="1" fill-rule="nonzero"/></g><g clip-path="url(#8a6e3674c5)"><path fill="#26c485" d="M 178.609375 781.65625 L 174.6875 781.65625 L 174.6875 625.933594 L 178.609375 625.933594 L 178.609375 781.65625 " fill-opacity="1" fill-rule="nonzero"/></g><g clip-path="url(#7ac898403e)"><path fill="#26c485" d="M 401.46875 558.800781 L 245.746094 558.800781 L 245.746094 554.878906 L 401.46875 554.878906 L 401.46875 558.800781 " fill-opacity="1" fill-rule="nonzero"/></g><g clip-path="url(#792da831e0)"><path fill="#26c485" d="M 191.679688 699.492188 L 187.761719 699.492188 L 187.761719 543.769531 L 191.679688 543.769531 L 191.679688 699.492188 " fill-opacity="1" fill-rule="nonzero"/></g><g clip-path="url(#c7d5dc5b51)"><path fill="#26c485" d="M 319.300781 571.871094 L 163.578125 571.871094 L 163.578125 567.949219 L 319.300781 567.949219 L 319.300781 571.871094 " fill-opacity="1" fill-rule="nonzero"/></g></svg>